<svg xmlns="http://www.w3.org/2000/svg" width="64" height="64" viewBox="0 0 24 24">
	<g fill="none">
		<path fill="url(#SVG3u7HFbEC)" d="M12 2c5.523 0 10 4.477 10 10s-4.477 10-10 10S2 17.523 2 12S6.477 2 12 2" />
		<path fill="url(#SVGIIuNfedi)" d="M12 7a.75.75 0 0 0-.743.648l-.007.102v3.5h-3.5a.75.75 0 0 0-.102 1.493l.102.007h3.5v3.5a.75.75 0 0 0 1.493.102l.007-.102v-3.5h3.5a.75.75 0 0 0 .102-1.493l-.102-.007h-3.5v-3.5A.75.75 0 0 0 12 7" />
		<defs>
			<linearGradient id="SVG3u7HFbEC" x1="2.714" x2="16.517" y1="5.75" y2="20.09" gradientUnits="userSpaceOnUse">
				<stop stop-color="#52d17c" />
				<stop offset="1" stop-color="#22918b" />
			</linearGradient>
			<linearGradient id="SVGIIuNfedi" x1="8.875" x2="11.943" y1="8.02" y2="18.852" gradientUnits="userSpaceOnUse">
				<stop stop-color="#fff" />
				<stop offset="1" stop-color="#e3ffd9" />
			</linearGradient>
		</defs>
	</g>
</svg>