<svg xmlns="http://www.w3.org/2000/svg" width="50" height="40" viewBox="0 0 50 40">
  <metadata>    <?xpacket begin="﻿" id="W5M0MpCehiHzreSzNTczkc9d"?>
    <x:xmpmeta xmlns:x="adobe:ns:meta/" x:xmptk="Adobe XMP Core 5.6-c142 79.160924, 2017/07/13-01:06:39        ">
      <rdf:RDF xmlns:rdf="http://www.w3.org/1999/02/22-rdf-syntax-ns#">
        <rdf:Description rdf:about=""/>
      </rdf:RDF>
    </x:xmpmeta>





















    <?xpacket end="w"?></metadata>
  <defs>
    <style>
      .cls-1 {
        fill: #d7dae0;
        fill-rule: evenodd;
      }
    </style>
  </defs>
  <path id="fireird-icon" class="cls-1" d="M22.027,14.446a0.727,0.727,0,0,0-.034-0.168C21.97,14.187,21.98,14.086,21.96,14a0.686,0.686,0,0,1,.008-0.236l0.008-.135a0.77,0.77,0,0,1,.244-0.438,1.556,1.556,0,0,1,1.213-.059c0.1,0.037.2,0.1,0.295,0.135,0.384,0.151.779,0.276,1.162,0.421,0.545,0.206,1.118.331,1.693,0.5,0.12,0.036.229,0.033,0.354,0.067a1.9,1.9,0,0,0,1.575-.109,0.619,0.619,0,0,0,.067-0.379H28.6a1.322,1.322,0,0,0,.067.236,0.876,0.876,0,0,1-.059.614,0.963,0.963,0,0,1-.9.227,2.867,2.867,0,0,0-1.491.034,1.025,1.025,0,0,0-.2.152,0.03,0.03,0,0,0,.008.017,1.479,1.479,0,0,0,.286.143c0.178,0.1.366,0.187,0.539,0.294a5.252,5.252,0,0,1,1.608,1.33,1.975,1.975,0,0,1,.278.623c0.021,0.076,0,.137.017,0.219a1.726,1.726,0,0,1,0,.589c-0.019.087,0,.153-0.017,0.236-0.047.191-.078,0.392-0.135,0.564a4.355,4.355,0,0,1-.2.589,10.543,10.543,0,0,1-.96,1.59,4.66,4.66,0,0,0-1.027,1.548,1.35,1.35,0,0,0,.017.665,1.365,1.365,0,0,0,.9.9,1.491,1.491,0,0,0,.648.135c0.183-.041.4-0.007,0.581-0.05,0.116-.027.247-0.02,0.37-0.05,0.3-.073.6-0.1,0.884-0.185a7.343,7.343,0,0,0,1.322-.5,5.7,5.7,0,0,0,2-1.742,7.653,7.653,0,0,0,.994-2.2c0.111-.365.143-0.758,0.236-1.144,0.043-.178.028-0.366,0.067-0.539V17.947c0.035-.158.014-0.359,0.05-0.522v-0.21a3.815,3.815,0,0,0,.017-0.715,5.41,5.41,0,0,0-.387-1.936c-0.061-.162-0.094-0.32-0.169-0.471a12.47,12.47,0,0,0-.589-1.128,9.2,9.2,0,0,0-2.476-2.558c-0.32-.225-0.658-0.431-0.994-0.64s-0.665-.348-1.011-0.522a17.717,17.717,0,0,0-1.684-.724c-0.173-.066-0.338-0.1-0.514-0.168-0.235-.088-0.482-0.15-0.733-0.236a1.487,1.487,0,0,0-.337-0.1V8a1.875,1.875,0,0,1,.421.034h0.118c0.064,0.014.165,0.019,0.227,0.034,0.083,0.019.145,0,.227,0.017,0.187,0.044.4,0.055,0.581,0.1,0.057,0.015.095,0,.152,0.017,0.173,0.049.36,0.066,0.539,0.118,0.257,0.075.533,0.127,0.783,0.219,0.21,0.077.436,0.158,0.64,0.236,0.169,0.064.33,0.107,0.488,0.185,0.279,0.138.569,0.257,0.842,0.4,0.321,0.173.637,0.362,0.943,0.555s0.582,0.414.867,0.623c0.074,0.054.138,0.131,0.211,0.185A7.636,7.636,0,0,1,33.75,11.77c0.217,0.244.461,0.476,0.657,0.741a15.067,15.067,0,0,1,1.162,1.759,13.2,13.2,0,0,1,.741,1.658c0.089,0.236.131,0.472,0.219,0.715,0.093,0.259.14,0.557,0.219,0.833,0.031,0.108.022,0.2,0.05,0.311,0.035,0.137.05,0.306,0.084,0.446,0.018,0.074,0,.127.017,0.2,0.024,0.105.026,0.246,0.051,0.353v0.118c0.013,0.061,0,.143.017,0.219A3.406,3.406,0,0,1,37,19.79a3.839,3.839,0,0,1-.017.724c-0.023.1,0,.222-0.017,0.311v0.143c-0.025.111-.006,0.241-0.034,0.362-0.055.238-.04,0.5-0.1,0.741-0.113.437-.166,0.894-0.3,1.3-0.02.058-.014,0.1-0.034,0.16a14.724,14.724,0,0,1-.926,2.247,11.912,11.912,0,0,1-4.96,4.864,13.188,13.188,0,0,1-1.625.69c-0.448.168-.934,0.25-1.415,0.387-0.145.042-.3,0.048-0.438,0.084-0.185.048-.383,0.042-0.564,0.084-0.082.019-.144,0-0.227,0.017-0.135.03-.308,0.02-0.446,0.05H25.741c-0.107.023-.247-0.009-0.371,0.017a2.081,2.081,0,0,1-.606-0.034c-0.165-.038-0.31-0.023-0.463-0.067a8.006,8.006,0,0,1-1.314-.438c-0.075-.037-0.146-0.048-0.219-0.084-0.248-.124-0.507-0.242-0.741-0.387s-0.49-.306-0.724-0.471c-0.1-.071-0.2-0.163-0.295-0.236s-0.2-.158-0.3-0.236l-0.059-.067a1.056,1.056,0,0,1-.168-0.143c-0.215-.278-0.465-0.529-0.657-0.833a8.82,8.82,0,0,1-.775-1.616c-0.07-.188-0.1-0.369-0.168-0.564-0.113-.342-0.174-0.727-0.27-1.094-0.043-.165-0.045-0.337-0.084-0.5-0.061-.253-0.044-0.523-0.1-0.774V23.871a4.26,4.26,0,0,1,.168-1.388,4.971,4.971,0,0,1,2.771-2.92,9.417,9.417,0,0,1,.9-0.37c0.107-.041.218-0.051,0.32-0.1a4.9,4.9,0,0,0,.749-0.471,1.353,1.353,0,0,0,.531-0.7A1.016,1.016,0,0,0,23.425,17c-0.074-.055-0.13-0.135-0.211-0.185a2.881,2.881,0,0,0-.758-0.295,1.332,1.332,0,0,0-.37.008c-0.125.028-.243,0-0.362,0.025a2.41,2.41,0,0,0-.547.168,0.9,0.9,0,0,0-.4.421c-0.025.056-.025,0.118-0.051,0.168a2.54,2.54,0,0,1-1.3-.993,0.969,0.969,0,0,1,.3-1.069,3.572,3.572,0,0,1,.632-0.513,1.494,1.494,0,0,1,.227-0.152A4.368,4.368,0,0,1,22.027,14.446Zm1.979-6.421,0.042,0.008a0.03,0.03,0,0,1-.017.008,0.954,0.954,0,0,1-.21.042c-0.151.044-.315,0.069-0.472,0.118a11.672,11.672,0,0,0-1.2.4c-0.126.055-.249,0.075-0.371,0.135-0.334.166-.685,0.3-1.011,0.471a14.9,14.9,0,0,0-1.474.892c-0.376.263-.715,0.568-1.078,0.841-0.081.061-.174,0.157-0.253,0.227l-0.093.1a2.678,2.678,0,0,0-.27.261,2.593,2.593,0,0,0-.253.261l-0.1.093c-0.082.108-.189,0.2-0.27,0.3-0.285.379-.6,0.738-0.859,1.145a11.674,11.674,0,0,0-1.061,2.137c-0.145.383-.222,0.8-0.337,1.212-0.055.2-.055,0.4-0.1,0.6L14.6,17.5a8.736,8.736,0,0,0-.059.917,3.366,3.366,0,0,0,.025.757q0.008,0.156.017,0.311c0.02,0.088.011,0.189,0.034,0.286,0.049,0.208.065,0.442,0.118,0.639,0.033,0.123.031,0.234,0.067,0.354,0.106,0.348.178,0.7,0.3,1.035a14.535,14.535,0,0,0,1.684,3.24c0.278,0.4.587,0.768,0.876,1.153,0.1,0.134.226,0.252,0.328,0.387,0.04,0.053.108,0.094,0.143,0.151a1.015,1.015,0,0,1,.034.244c0.051,0.2.069,0.413,0.135,0.606a6.734,6.734,0,0,0,.589,1.38c0.215,0.346.451,0.666,0.691,0.985,0.137,0.182.317,0.331,0.455,0.513l0.2,0.194c0.134,0.134.263,0.278,0.4,0.4a0.889,0.889,0,0,1,.168.151H20.79a0.946,0.946,0,0,0-.261-0.135c-0.076-.04-0.159-0.1-0.236-0.135-0.135-.068-0.271-0.1-0.4-0.168a14.581,14.581,0,0,1-1.516-.858A12,12,0,0,1,14.9,26.362a12.422,12.422,0,0,1-1.112-2.238c-0.145-.382-0.248-0.785-0.371-1.186-0.067-.221-0.093-0.453-0.152-0.673l-0.017-.143c-0.045-.177-0.057-0.389-0.1-0.572-0.02-.082,0-0.144-0.017-0.227-0.014-.061-0.02-0.158-0.034-0.219V20.976c-0.013-.06,0-0.144-0.017-0.219s0.006-.207-0.017-0.311a2.115,2.115,0,0,1-.017-0.4,3.088,3.088,0,0,1,.017-0.581V19.251c0.021-.094.013-0.228,0.034-0.32l0.017-.286c0.057-.243.059-0.517,0.118-0.749,0.023-.09.011-0.156,0.034-0.244,0.041-.157.072-0.337,0.118-0.488,0.033-.11.031-0.2,0.067-0.311,0.069-.2.11-0.418,0.185-0.623,0.058-.159.127-0.333,0.185-0.488s0.085-.278.152-0.412,0.127-.3.2-0.454c0.218-.432.438-0.862,0.691-1.262a12.07,12.07,0,0,1,3.739-3.762,15.638,15.638,0,0,1,2.139-1.077c0.089-.039.17-0.05,0.261-0.084,0.295-.111.62-0.207,0.935-0.3,0.347-.105.718-0.144,1.078-0.236,0.109-.028.221-0.027,0.32-0.05,0.165-.039.337-0.023,0.5-0.059A0.65,0.65,0,0,0,24.006,8.025Zm-0.733,5.933a0.408,0.408,0,0,0-.16.084,0.62,0.62,0,0,0-.008.421,1.548,1.548,0,0,0,.4.008h0.851l0.008-.025a1.013,1.013,0,0,1-.219-0.143A1.964,1.964,0,0,0,23.274,13.958Z"/>
</svg>
