<?xml version="1.0" encoding="utf-8"?>
<!-- Generator: Adobe Illustrator 21.0.0, SVG Export Plug-In . SVG Version: 6.00 Build 0)  -->
<svg version="1.1" id="Layer_1" xmlns="http://www.w3.org/2000/svg" xmlns:xlink="http://www.w3.org/1999/xlink" x="0px" y="0px"
	 viewBox="0 0 256 256" style="enable-background:new 0 0 256 256;" xml:space="preserve">
<style type="text/css">
	.st0{fill:#333333;}
</style>
<path id="fireird-icon" class="st0" d="M96,68.8c0-0.6-0.2-1.2-0.4-1.8c-0.2-1-0.1-2-0.4-3c-0.1-0.8-0.1-1.7,0.1-2.5l0.1-1.4
	c0.3-1.8,1.2-3.5,2.6-4.7c4.1-2,8.7-2.2,13-0.6c1.1,0.4,2.1,1.1,3.2,1.4c4.1,1.6,8.3,2.9,12.4,4.5c5.8,2.2,11.9,3.5,18.1,5.3
	c1.3,0.4,2.4,0.4,3.8,0.7c5.5,2.1,11.6,1.6,16.8-1.2c0.7-1.2,0.9-2.7,0.7-4h0.2c0.2,0.9,0.4,1.7,0.7,2.5c0.6,2.2,0.4,4.5-0.6,6.6
	c-2.6,2.4-6.2,3.3-9.6,2.4c-5.2-1.3-10.7-1.2-15.9,0.4c-0.8,0.5-1.5,1-2.1,1.6c0,0.1,0,0.1,0.1,0.2c1,0.6,2,1.1,3.1,1.5
	c1.9,1.1,3.9,2,5.8,3.1c6.6,3.5,12.5,8.4,17.2,14.2c1.4,2,2.4,4.3,3,6.7c0.2,0.8,0,1.5,0.2,2.3c0.4,2.1,0.4,4.2,0,6.3
	c-0.2,0.9,0,1.6-0.2,2.5c-0.5,2-0.8,4.2-1.4,6c-0.6,2.1-1.3,4.2-2.1,6.3c-2.9,5.9-6.3,11.6-10.3,17c-4.7,4.7-8.5,10.3-11,16.5
	c-0.5,2.3-0.5,4.8,0.2,7.1c1.4,4.6,5,8.2,9.6,9.6c2.2,1,4.5,1.5,6.9,1.4c2-0.4,4.3-0.1,6.2-0.5c1.2-0.3,2.6-0.2,4-0.5
	c3.2-0.8,6.4-1.1,9.4-2c4.9-1.3,9.6-3.1,14.1-5.3c8.5-4.4,15.8-10.8,21.4-18.6c4.8-7.2,8.3-15.1,10.6-23.5c1.2-3.9,1.5-8.1,2.5-12.2
	c0.5-1.9,0.3-3.9,0.7-5.8v-1.2c0.4-1.7,0.1-3.8,0.5-5.6v-2.2c0.3-2.5,0.4-5.1,0.2-7.6c-0.1-7.1-1.5-14.1-4.1-20.7
	c-0.7-1.7-1-3.4-1.8-5c-1.9-4.1-4-8.1-6.3-12c-7-10.7-15.9-20-26.4-27.3c-3.4-2.4-7-4.6-10.6-6.8s-7.1-3.7-10.8-5.6
	c-5.9-2.9-11.9-5.5-18-7.7c-1.8-0.7-3.6-1.1-5.5-1.8c-2.5-0.9-5.1-1.6-7.8-2.5c-1.2-0.5-2.4-0.9-3.6-1.1V0c1.5,0,3,0.1,4.5,0.4h1.3
	c0.7,0.1,1.8,0.2,2.4,0.4c0.9,0.2,1.5,0,2.4,0.2c2,0.5,4.3,0.6,6.2,1.1c0.6,0.2,1,0,1.6,0.2c1.8,0.5,3.8,0.7,5.8,1.3
	c2.7,0.8,5.7,1.4,8.4,2.3c2.2,0.8,4.7,1.7,6.8,2.5c1.8,0.7,3.5,1.1,5.2,2c3,1.5,6.1,2.7,9,4.3c3.4,1.8,6.8,3.9,10.1,5.9
	s6.2,4.4,9.3,6.7c0.8,0.6,1.5,1.4,2.3,2c4.3,3.3,8.2,7.1,11.8,11.2c2.3,2.6,4.9,5.1,7,7.9c4.6,6,8.7,12.2,12.4,18.8
	c3,5.7,5.7,11.6,7.9,17.7c1,2.5,1.4,5,2.3,7.6c1,2.8,1.5,5.9,2.3,8.9c0.3,1.2,0.2,2.1,0.5,3.3c0.4,1.5,0.5,3.3,0.9,4.8
	c0.2,0.8,0,1.4,0.2,2.1c0.3,1.1,0.3,2.6,0.5,3.8v1.3c0.1,0.7,0,1.5,0.2,2.3c0.4,2.4,0.5,4.7,0.4,7.1c0.2,2.6,0.1,5.2-0.2,7.7
	c-0.2,1.1,0,2.4-0.2,3.3v1.5c-0.3,1.2-0.1,2.6-0.4,3.9c-0.6,2.5-0.4,5.3-1.1,7.9c-1.2,4.7-1.8,9.5-3.2,13.9
	c-0.2,0.6-0.1,1.1-0.4,1.7c-2.6,8.3-5.9,16.3-9.9,24c-12.1,22.2-30.5,40.3-53,51.9c-5.6,2.8-11.4,5.3-17.4,7.4
	c-4.8,1.8-10,2.7-15.1,4.1c-1.5,0.4-3.2,0.5-4.7,0.9c-2,0.5-4.1,0.4-6,0.9c-0.9,0.2-1.5,0-2.4,0.2c-1.4,0.3-3.3,0.2-4.8,0.5h-1.7
	c-1.1,0.2-2.6-0.1-4,0.2c-2.2,0.2-4.3,0.1-6.5-0.4c-1.8-0.4-3.3-0.2-4.9-0.7c-4.8-1.2-9.5-2.7-14-4.7c-0.8-0.4-1.6-0.5-2.3-0.9
	c-2.6-1.3-5.4-2.6-7.9-4.1c-2.5-1.5-5.2-3.3-7.7-5c-1.1-0.8-2.1-1.7-3.2-2.5s-2.1-1.7-3.2-2.5l-0.6-0.7c-0.6-0.4-1.3-1-1.8-1.5
	c-2.3-3-5-5.6-7-8.9c-3.3-5.5-6.1-11.2-8.3-17.3c-0.7-2-1.1-3.9-1.8-6c-1.2-3.7-1.9-7.8-2.9-11.7c-0.5-1.8-0.5-3.6-0.9-5.3
	c-0.7-2.7-0.5-5.6-1.1-8.3v-5.9c-0.2-5,0.4-10,1.8-14.8c5-14.1,15.8-25.4,29.6-31.2c3.1-1.5,6.3-2.8,9.6-3.9
	c1.1-0.4,2.3-0.5,3.4-1.1c2.8-1.4,5.5-3.1,8-5c2.7-1.8,4.7-4.4,5.7-7.5c0.3-3.9-1.5-7.6-4.7-9.8c-0.8-0.6-1.4-1.4-2.3-2
	c-2.5-1.4-5.3-2.5-8.1-3.1c-1.3-0.2-2.6-0.1-4,0.1c-1.3,0.3-2.6,0-3.9,0.3c-2,0.4-4,1-5.8,1.8c-1.9,1-3.4,2.6-4.3,4.5
	c-0.3,0.6-0.3,1.3-0.5,1.8c-5.7-1.9-10.6-5.6-13.9-10.6c-1.4-4.1-0.2-8.7,3.2-11.4c2-2.1,4.3-3.9,6.7-5.5c0.8-0.6,1.6-1.2,2.4-1.6
	C85.6,68.9,90.8,68.5,96,68.8z M117.1,0.3l0.4,0.1c0,0-0.1,0.1-0.2,0.1c-0.7,0.2-1.5,0.4-2.2,0.4c-1.6,0.5-3.4,0.7-5,1.3
	c-4.3,1.2-8.6,2.6-12.8,4.3c-1.3,0.6-2.7,0.8-4,1.4c-3.6,1.8-7.3,3.2-10.8,5c-5.4,2.9-10.7,6-15.7,9.5c-4,2.8-7.6,6.1-11.5,9
	c-0.9,0.7-1.9,1.7-2.7,2.4l-1,1.1c-1,0.9-2,1.8-2.9,2.8c-1,0.9-1.9,1.8-2.7,2.8l-1.1,1c-0.9,1.2-2,2.1-2.9,3.2
	c-3,4-6.4,7.9-9.2,12.2c-4.5,7.2-8.3,14.8-11.3,22.8c-1.5,4.1-2.4,8.5-3.6,12.9c-0.6,2.1-0.6,4.3-1.1,6.4l-0.2,2.4
	c-0.4,3.2-0.6,6.5-0.6,9.8c-0.2,2.7-0.1,5.4,0.3,8.1c0.1,1.1,0.1,2.2,0.2,3.3c0.2,0.9,0.1,2,0.4,3.1c0.5,2.2,0.7,4.7,1.3,6.8
	c0.4,1.3,0.3,2.5,0.7,3.8c1.1,3.7,1.9,7.5,3.2,11c4.5,12.2,10.6,23.9,18,34.6c3,4.3,6.3,8.2,9.4,12.3c1.1,1.4,2.4,2.7,3.5,4.1
	c0.4,0.6,1.2,1,1.5,1.6c0.2,0.9,0.3,1.7,0.4,2.6c0.5,2.1,0.7,4.4,1.4,6.5c1.5,5.1,3.7,10.1,6.3,14.7c2.3,3.7,4.8,7.1,7.4,10.5
	c1.5,1.9,3.4,3.5,4.9,5.5l2.1,2.1c1.4,1.4,2.8,3,4.3,4.3c0.7,0.5,1.3,1,1.8,1.6h-0.2c-0.8-0.6-1.8-1.1-2.8-1.4
	c-0.8-0.4-1.7-1.1-2.5-1.4c-1.4-0.7-2.9-1.1-4.3-1.8c-5.6-2.7-11-5.8-16.2-9.2C42.1,224,29.5,211.1,19.9,196
	c-4.8-7.5-8.7-15.5-11.9-23.9c-1.5-4.1-2.6-8.4-4-12.7c-0.7-2.4-1-4.8-1.6-7.2l-0.2-1.5c-0.5-1.9-0.6-4.2-1.1-6.1
	c-0.2-0.9,0-1.5-0.2-2.4c-0.1-0.7-0.2-1.7-0.4-2.3v-1.4c-0.1-0.6,0-1.5-0.2-2.3s0.1-2.2-0.2-3.3c-0.2-1.4-0.3-2.8-0.2-4.3
	c-0.1-2.1-0.1-4.1,0.2-6.2v-2.3c0.2-1,0.1-2.4,0.4-3.4l0.2-3.1c0.6-2.6,0.6-5.5,1.3-8c0.2-1,0.1-1.7,0.4-2.6
	c0.4-1.7,0.8-3.6,1.3-5.2C4,96.7,4,95.7,4.4,94.5c0.7-2.1,1.2-4.5,2-6.7c0.6-1.7,1.4-3.6,2-5.2s0.9-3,1.6-4.4
	c0.7-1.4,1.4-3.2,2.1-4.8c2.3-4.6,4.7-9.2,7.4-13.5C29.7,43.8,43.3,30,59.4,19.8c7.3-4.4,14.9-8.3,22.8-11.5c1-0.4,1.8-0.5,2.8-0.9
	c3.2-1.2,6.6-2.2,10-3.2c3.7-1.1,7.7-1.5,11.5-2.5c1.2-0.3,2.4-0.3,3.4-0.5c1.8-0.4,3.6-0.2,5.3-0.6C115.9,0.5,116.5,0.4,117.1,0.3z
	 M109.3,63.6c-0.6,0.2-1.2,0.5-1.7,0.9c-0.6,1.4-0.6,3-0.1,4.5c1.4,0.2,2.9,0.2,4.3,0.1h9.1l0.1-0.3c-0.8-0.4-1.6-0.9-2.3-1.5
	C115.8,65.3,112.7,64.1,109.3,63.6L109.3,63.6z"/>
</svg>
