<?xml version="1.0" encoding="utf-8"?>
<!-- Generator: Adobe Illustrator 21.0.0, SVG Export Plug-In . SVG Version: 6.00 Build 0)  -->
<svg version="1.1" id="Layer_1" xmlns="http://www.w3.org/2000/svg" xmlns:xlink="http://www.w3.org/1999/xlink" x="0px" y="0px"
	 viewBox="0 0 512 512" style="enable-background:new 0 0 512 512;" xml:space="preserve">
<style type="text/css">
	.st0{fill:#2C3E50;}
</style>
<path class="st0" d="M256,450c-52.1,0-100.9-20.2-137.5-57C82.1,356.4,62,307.7,62,256c0-51.6,20.2-100.3,57-137
	c36.7-36.7,85.4-57,137-57c49,0,95.3,18.2,131.3,51.4l49.1-49.1c1.5-1.5,3.6-2.3,5.7-2.3c1,0,2.1,0.2,3.1,0.6c3,1.2,4.9,4.2,4.9,7.4
	v162.8c0,4.4-3.6,8-8,8H279.3c-3.2,0-6.2-1.9-7.4-4.9s-0.6-6.4,1.7-8.7l68.7-68.7c-23.5-21.7-54.5-33.9-86.3-33.9
	c-72.5,0-131.5,59-131.5,131.5c0,72.5,59,131.5,131.5,131.5c54.3,0,103.4-33.6,122.3-83.6c1.2-3.1,4.2-5.2,7.5-5.2H435
	c2.5,0,4.9,1.2,6.4,3.2s2,4.6,1.3,7c-11.4,39.9-35.8,75.8-68.6,101.1C340.1,436.2,299.3,450,256,450z"/>
<path class="st0" d="M256,395.5c-76.7,0-139.5-62.8-139.5-139.5S179.3,116.5,256,116.5c38.4,0,73.2,16.3,97.7,41.9l-74.4,74.4H442
	V70l-54.6,54.6C353.7,90.9,307.2,70,256,70C153.7,70,70,153.7,70,256s82.5,186,186,186c85.6,0,156.7-57.2,179-135.3h-49.2
	C366,359.1,314.9,395.5,256,395.5z"/>
</svg>
