<svg xmlns="http://www.w3.org/2000/svg" width="16" height="16" viewBox="0 0 16 16">
  <metadata><?xpacket begin="﻿" id="W5M0MpCehiHzreSzNTczkc9d"?>
<x:xmpmeta xmlns:x="adobe:ns:meta/" x:xmptk="Adobe XMP Core 5.6-c142 79.160924, 2017/07/13-01:06:39        ">
   <rdf:RDF xmlns:rdf="http://www.w3.org/1999/02/22-rdf-syntax-ns#">
      <rdf:Description rdf:about=""/>
   </rdf:RDF>
</x:xmpmeta>
                                                                                                    
                                                                                                    
                                                                                                    
                                                                                                    
                                                                                                    
                                                                                                    
                                                                                                    
                                                                                                    
                                                                                                    
                                                                                                    
                                                                                                    
                                                                                                    
                                                                                                    
                                                                                                    
                                                                                                    
                                                                                                    
                                                                                                    
                                                                                                    
                                                                                                    
                                                                                                    
                           
<?xpacket end="w"?></metadata>
<defs>
    <style>
      .cls-1 {
        fill: #8e44ad;
        fill-rule: evenodd;
      }
    </style>
  </defs>
  <path id="unique-light" class="cls-1" d="M8.006,7.683a0.75,0.75,0,0,0-.75.75,22.886,22.886,0,0,1-.865,6.614,0.75,0.75,0,1,0,1.443.406,24.225,24.225,0,0,0,.921-7.02,0.75,0.75,0,0,0-.749-0.75h0ZM7.979,5.127A3.126,3.126,0,0,0,4.757,8.288a20.538,20.538,0,0,1-.418,4.457,0.75,0.75,0,1,0,1.468.3,22.037,22.037,0,0,0,.449-4.784,1.628,1.628,0,0,1,1.7-1.636,1.809,1.809,0,0,1,1.8,1.734,25.164,25.164,0,0,1-.331,4.488A0.749,0.749,0,1,0,10.9,13.1a26.716,26.716,0,0,0,.352-4.756A3.32,3.32,0,0,0,7.979,5.127h0ZM4.522,4.509a0.75,0.75,0,0,0-1.054.109,5.427,5.427,0,0,0-1.21,3.5,18.179,18.179,0,0,1-.285,3.5,0.75,0.75,0,1,0,1.476.267A19.686,19.686,0,0,0,3.756,8.1a3.867,3.867,0,0,1,.874-2.532,0.751,0.751,0,0,0-.109-1.056h0ZM7.941,2.56a5.578,5.578,0,0,0-1.43.155,0.751,0.751,0,0,0,.345,1.461,4.478,4.478,0,0,1,1.062-.115,4.374,4.374,0,0,1,4.338,4.208,27.562,27.562,0,0,1-.174,3.553,0.75,0.75,0,1,0,1.489.171,29.083,29.083,0,0,0,.184-3.747A5.885,5.885,0,0,0,7.941,2.56h0Zm7.873,3.8a0.75,0.75,0,1,0-1.464.323A7.808,7.808,0,0,1,14.5,8.607a0.75,0.75,0,0,0,.743.757h0.006A0.75,0.75,0,0,0,16,8.619a9.3,9.3,0,0,0-.182-2.262h0ZM14.56,3.521A8.305,8.305,0,0,0,7.9-.007a7.819,7.819,0,0,0-5.7,2.28A7.461,7.461,0,0,0,.011,7.7l0,0.671a0.75,0.75,0,0,0,.727.772H0.757A0.75,0.75,0,0,0,1.505,8.42l0-.739A5.969,5.969,0,0,1,3.268,3.335,6.326,6.326,0,0,1,7.88,1.494a6.8,6.8,0,0,1,5.454,2.889,0.749,0.749,0,1,0,1.226-.862h0Z"/>
</svg>
