<svg xmlns="http://www.w3.org/2000/svg" width="16" height="16" viewBox="0 0 16 16">
  <metadata><?xpacket begin="﻿" id="W5M0MpCehiHzreSzNTczkc9d"?>
<x:xmpmeta xmlns:x="adobe:ns:meta/" x:xmptk="Adobe XMP Core 5.6-c142 79.160924, 2017/07/13-01:06:39        ">
   <rdf:RDF xmlns:rdf="http://www.w3.org/1999/02/22-rdf-syntax-ns#">
      <rdf:Description rdf:about=""/>
   </rdf:RDF>
</x:xmpmeta>
                                                                                                    
                                                                                                    
                                                                                                    
                                                                                                    
                                                                                                    
                                                                                                    
                                                                                                    
                                                                                                    
                                                                                                    
                                                                                                    
                                                                                                    
                                                                                                    
                                                                                                    
                                                                                                    
                                                                                                    
                                                                                                    
                                                                                                    
                                                                                                    
                                                                                                    
                                                                                                    
                           
<?xpacket end="w"?></metadata>
<defs>
    <style>
      .cls-1 {
        fill: #e74c3c;
        fill-rule: evenodd;
      }
    </style>
  </defs>
  <path id="foreign-dark" class="cls-1" d="M10,1.493a4.5,4.5,0,1,1-1.679,8.682L7,11.5H6V13h-1.5v1.5h-3v-3l4.2-4.2A4.5,4.5,0,0,1,10,1.493m0-1.5A6.006,6.006,0,0,0,4.049,6.818L0.207,10.657a0.75,0.75,0,0,0-.22.531v4.063A0.751,0.751,0,0,0,.738,16H5.244A0.751,0.751,0,0,0,6,15.251V14.5H6.746A0.751,0.751,0,0,0,7.5,13.75V13.124l1.253-1.256A6,6,0,1,0,10-.008Zm0,4.5a1.5,1.5,0,1,0,1.5-1.5A1.5,1.5,0,0,0,10,4.494Z"/>
</svg>
