<svg xmlns="http://www.w3.org/2000/svg" width="16" height="13.969" viewBox="0 0 16 13.969">
  <metadata><?xpacket begin="﻿" id="W5M0MpCehiHzreSzNTczkc9d"?>
<x:xmpmeta xmlns:x="adobe:ns:meta/" x:xmptk="Adobe XMP Core 5.6-c142 79.160924, 2017/07/13-01:06:39        ">
   <rdf:RDF xmlns:rdf="http://www.w3.org/1999/02/22-rdf-syntax-ns#">
      <rdf:Description rdf:about=""/>
   </rdf:RDF>
</x:xmpmeta>
                                                                                                    
                                                                                                    
                                                                                                    
                                                                                                    
                                                                                                    
                                                                                                    
                                                                                                    
                                                                                                    
                                                                                                    
                                                                                                    
                                                                                                    
                                                                                                    
                                                                                                    
                                                                                                    
                                                                                                    
                                                                                                    
                                                                                                    
                                                                                                    
                                                                                                    
                                                                                                    
                           
<?xpacket end="w"?></metadata>
<defs>
    <style>
      .cls-1 {
        fill: #f1c40f;
        fill-rule: evenodd;
      }
    </style>
  </defs>
  <path id="host-dark" class="cls-1" d="M15.022,5.016H1a1,1,0,0,1-1-1v-2a1,1,0,0,1,1-1h14.02a1,1,0,0,1,1,1v2A1,1,0,0,1,15.022,5.016ZM13.52,2.27a0.749,0.749,0,1,0,.751.749A0.75,0.75,0,0,0,13.52,2.27Zm-2,0a0.749,0.749,0,1,0,.751.749A0.75,0.75,0,0,0,11.517,2.27Zm3.5,7.739H1a1,1,0,0,1-1-1v-2a1,1,0,0,1,1-1h14.02a1,1,0,0,1,1,1v2A1,1,0,0,1,15.022,10.009Zm-1.5-2.746a0.749,0.749,0,1,0,.751.749A0.75,0.75,0,0,0,13.52,7.263Zm-2,0a0.749,0.749,0,1,0,.751.749A0.75,0.75,0,0,0,11.517,7.263ZM15.022,15H1a1,1,0,0,1-1-1v-2a1,1,0,0,1,1-1h14.02a1,1,0,0,1,1,1v2A1,1,0,0,1,15.022,15Zm-1.5-2.746a0.749,0.749,0,1,0,.751.749A0.75,0.75,0,0,0,13.52,12.256Zm-2,0a0.749,0.749,0,1,0,.751.749A0.75,0.75,0,0,0,11.517,12.256Z" transform="translate(0 -1.031)"/>
</svg>
