<svg xmlns="http://www.w3.org/2000/svg" width="15.906" height="15.938" viewBox="0 0 15.906 15.938">
  <metadata><?xpacket begin="﻿" id="W5M0MpCehiHzreSzNTczkc9d"?>
<x:xmpmeta xmlns:x="adobe:ns:meta/" x:xmptk="Adobe XMP Core 5.6-c142 79.160924, 2017/07/13-01:06:39        ">
   <rdf:RDF xmlns:rdf="http://www.w3.org/1999/02/22-rdf-syntax-ns#">
      <rdf:Description rdf:about=""/>
   </rdf:RDF>
</x:xmpmeta>
                                                                                                    
                                                                                                    
                                                                                                    
                                                                                                    
                                                                                                    
                                                                                                    
                                                                                                    
                                                                                                    
                                                                                                    
                                                                                                    
                                                                                                    
                                                                                                    
                                                                                                    
                                                                                                    
                                                                                                    
                                                                                                    
                                                                                                    
                                                                                                    
                                                                                                    
                                                                                                    
                           
<?xpacket end="w"?></metadata>
<defs>
    <style>
      .cls-1 {
        fill: #7f8c8d;
        fill-rule: evenodd;
      }
    </style>
  </defs>
  <path id="null-dark" class="cls-1" d="M7.134,0.437L0.462,7.117a1.29,1.29,0,0,0,0,1.822L7.134,15.62a1.286,1.286,0,0,0,1.82,0l6.672-6.681a1.29,1.29,0,0,0,0-1.822L8.954,0.437A1.286,1.286,0,0,0,7.134.437ZM14.6,8.142L8.158,14.6a0.161,0.161,0,0,1-.227,0L1.486,8.142a0.162,0.162,0,0,1,0-.228L7.93,1.462a0.161,0.161,0,0,1,.227,0L14.6,7.915A0.162,0.162,0,0,1,14.6,8.142Z" transform="translate(-0.094 -0.063)"/>
</svg>
