<svg xmlns="http://www.w3.org/2000/svg" width="16" height="16" viewBox="0 0 16 16">
  <metadata><?xpacket begin="﻿" id="W5M0MpCehiHzreSzNTczkc9d"?>
<x:xmpmeta xmlns:x="adobe:ns:meta/" x:xmptk="Adobe XMP Core 5.6-c142 79.160924, 2017/07/13-01:06:39        ">
   <rdf:RDF xmlns:rdf="http://www.w3.org/1999/02/22-rdf-syntax-ns#">
      <rdf:Description rdf:about=""/>
   </rdf:RDF>
</x:xmpmeta>
                                                                                                    
                                                                                                    
                                                                                                    
                                                                                                    
                                                                                                    
                                                                                                    
                                                                                                    
                                                                                                    
                                                                                                    
                                                                                                    
                                                                                                    
                                                                                                    
                                                                                                    
                                                                                                    
                                                                                                    
                                                                                                    
                                                                                                    
                                                                                                    
                                                                                                    
                                                                                                    
                           
<?xpacket end="w"?></metadata>
<defs>
    <style>
      .cls-1 {
        fill: #e74c3c;
        fill-rule: evenodd;
      }
    </style>
  </defs>
  <path id="primary-dark" class="cls-1" d="M15.989,5.5A5.5,5.5,0,0,1,9.467,10.9l-0.75.845a0.749,0.749,0,0,1-.56.252H6.994v1.251a0.75,0.75,0,0,1-.75.751H5v1.251a0.75,0.75,0,0,1-.75.75h-3.5A0.75,0.75,0,0,1,0,15.251V12.81a0.751,0.751,0,0,1,.22-0.531L5.271,7.22A5.5,5.5,0,1,1,15.989,5.5Zm-5.5-1.5a1.5,1.5,0,1,0,1.5-1.5A1.5,1.5,0,0,0,10.492,3.994Z"/>
</svg>
